HIERARCHY
ROOT Boy:Hips
{
	OFFSET 0.000000 84.648811 2.550922
	CHANNELS 6 Xposition Yposition Zposition Xrotation Yrotation Zrotation
	JOINT Boy:Spine
	{
		OFFSET 0.000000 7.722015 1.166203
		CHANNELS 3 Xrotation Yrotation Zrotation
		JOINT Boy:Spine1
		{
			OFFSET 0.000000 9.600136 0.248766
			CHANNELS 3 Xrotation Yrotation Zrotation
			JOINT Boy:Spine2
			{
				OFFSET 0.000000 11.037796 -0.491239
				CHANNELS 3 Xrotation Yrotation Zrotation
				JOINT Boy:LeftShoulder
				{
					OFFSET 4.215842 16.554443 -4.064723
					CHANNELS 3 Xrotation Yrotation Zrotation
					JOINT Boy:LeftArm
					{
						OFFSET 5.300655 0.663193 -1.709281
						CHANNELS 3 Xrotation Yrotation Zrotation
						JOINT Boy:LeftForeArm
						{
							OFFSET 21.769281 -0.634003 -2.041093
							CHANNELS 3 Xrotation Yrotation Zrotation
							JOINT Boy:LeftHand
							{
								OFFSET 23.845806 -0.085205 -0.870900
								CHANNELS 3 Xrotation Yrotation Zrotation
								JOINT Boy:LeftHandThumb1
								{
									OFFSET 4.401760 -1.591446 3.365570
									CHANNELS 3 Xrotation Yrotation Zrotation
									JOINT Boy:LeftHandThumb2
									{
										OFFSET 3.016712 -1.561966 2.119022
										CHANNELS 3 Xrotation Yrotation Zrotation
										JOINT Boy:LeftHandThumb3
										{
											OFFSET 3.029564 -2.099792 1.415844
											CHANNELS 3 Xrotation Yrotation Zrotation
											JOINT Boy:LeftHandThumb4
											{
												OFFSET 3.582939 -2.394936 0.943704
												CHANNELS 3 Xrotation Yrotation Zrotation
												JOINT Boy:LeftHandThumb4_end
												{
													OFFSET 0.000000 4.411774 0.000000
													CHANNELS 3 Xrotation Yrotation Zrotation
													End Site
													{
														OFFSET 0.000000 4.411766 0.000000
													}
												}
											}
										}
									}
								}
								JOINT Boy:LeftHandIndex1
								{
									OFFSET 12.180298 -0.132065 3.699154
									CHANNELS 3 Xrotation Yrotation Zrotation
									JOINT Boy:LeftHandIndex2
									{
										OFFSET 3.229187 -0.574905 -0.143498
										CHANNELS 3 Xrotation Yrotation Zrotation
										JOINT Boy:LeftHandIndex3
										{
											OFFSET 3.111160 -1.135643 -0.280794
											CHANNELS 3 Xrotation Yrotation Zrotation
											JOINT Boy:LeftHandIndex4
											{
												OFFSET 3.151428 -1.838524 -0.237864
												CHANNELS 3 Xrotation Yrotation Zrotation
												JOINT Boy:LeftHandIndex4_end
												{
													OFFSET 0.000000 3.656265 0.000000
													CHANNELS 3 Xrotation Yrotation Zrotation
													End Site
													{
														OFFSET 0.000000 3.656265 0.000000
													}
												}
											}
										}
									}
								}
								JOINT Boy:LeftHandMiddle1
								{
									OFFSET 12.135162 -0.030609 -0.098180
									CHANNELS 3 Xrotation Yrotation Zrotation
									JOINT Boy:LeftHandMiddle2
									{
										OFFSET 3.290932 -0.875473 -0.186928
										CHANNELS 3 Xrotation Yrotation Zrotation
										JOINT Boy:LeftHandMiddle3
										{
											OFFSET 3.094551 -1.150215 -0.267588
											CHANNELS 3 Xrotation Yrotation Zrotation
											JOINT Boy:LeftHandMiddle4
											{
												OFFSET 4.410469 -2.017624 -0.248491
												CHANNELS 3 Xrotation Yrotation Zrotation
												JOINT Boy:LeftHandMiddle4_end
												{
													OFFSET 0.000000 4.856407 0.000000
													CHANNELS 3 Xrotation Yrotation Zrotation
													End Site
													{
														OFFSET 0.000000 4.856415 0.000000
													}
												}
											}
										}
									}
								}
								JOINT Boy:LeftHandRing1
								{
									OFFSET 12.304863 -0.401016 -3.070051
									CHANNELS 3 Xrotation Yrotation Zrotation
									JOINT Boy:LeftHandRing2
									{
										OFFSET 2.881340 -0.992859 -0.186927
										CHANNELS 3 Xrotation Yrotation Zrotation
										JOINT Boy:LeftHandRing3
										{
											OFFSET 3.022743 -1.281021 -0.290962
											CHANNELS 3 Xrotation Yrotation Zrotation
											JOINT Boy:LeftHandRing4
											{
												OFFSET 3.700905 -1.727280 -0.322350
												CHANNELS 3 Xrotation Yrotation Zrotation
												JOINT Boy:LeftHandRing4_end
												{
													OFFSET 0.000000 4.096848 0.000000
													CHANNELS 3 Xrotation Yrotation Zrotation
													End Site
													{
														OFFSET 0.000000 4.096848 0.000000
													}
												}
											}
										}
									}
								}
								JOINT Boy:LeftHandPinky1
								{
									OFFSET 11.337273 -1.689568 -5.625613
									CHANNELS 3 Xrotation Yrotation Zrotation
									JOINT Boy:LeftHandPinky2
									{
										OFFSET 2.679024 -0.950066 -0.330555
										CHANNELS 3 Xrotation Yrotation Zrotation
										JOINT Boy:LeftHandPinky3
										{
											OFFSET 2.724571 -0.843628 -0.252684
											CHANNELS 3 Xrotation Yrotation Zrotation
											JOINT Boy:LeftHandPinky4
											{
												OFFSET 2.778999 -0.971451 -0.188803
												CHANNELS 3 Xrotation Yrotation Zrotation
												JOINT Boy:LeftHandPinky4_end
												{
													OFFSET 0.000000 2.949936 0.000000
													CHANNELS 3 Xrotation Yrotation Zrotation
													End Site
													{
														OFFSET 0.000000 2.949951 0.000000
													}
												}
											}
										}
									}
								}
							}
						}
					}
				}
				JOINT Boy:RightShoulder
				{
					OFFSET -4.215842 16.554443 -4.064723
					CHANNELS 3 Xrotation Yrotation Zrotation
					JOINT Boy:RightArm
					{
						OFFSET -5.300655 0.663193 -1.709281
						CHANNELS 3 Xrotation Yrotation Zrotation
						JOINT Boy:RightForeArm
						{
							OFFSET -21.769281 -0.634003 -2.041093
							CHANNELS 3 Xrotation Yrotation Zrotation
							JOINT Boy:RightHand
							{
								OFFSET -23.845806 -0.085205 -0.870900
								CHANNELS 3 Xrotation Yrotation Zrotation
								JOINT Boy:RightHandThumb1
								{
									OFFSET -4.401760 -1.591446 3.365570
									CHANNELS 3 Xrotation Yrotation Zrotation
									JOINT Boy:RightHandThumb2
									{
										OFFSET -3.016712 -1.561966 2.119022
										CHANNELS 3 Xrotation Yrotation Zrotation
										JOINT Boy:RightHandThumb3
										{
											OFFSET -3.029564 -2.099792 1.415844
											CHANNELS 3 Xrotation Yrotation Zrotation
											JOINT Boy:RightHandThumb4
											{
												OFFSET -3.582939 -2.394936 0.943704
												CHANNELS 3 Xrotation Yrotation Zrotation
												JOINT Boy:RightHandThumb4_end
												{
													OFFSET 0.000000 4.411774 0.000000
													CHANNELS 3 Xrotation Yrotation Zrotation
													End Site
													{
														OFFSET 0.000000 4.411766 0.000000
													}
												}
											}
										}
									}
								}
								JOINT Boy:RightHandIndex1
								{
									OFFSET -12.180298 -0.132065 3.699154
									CHANNELS 3 Xrotation Yrotation Zrotation
									JOINT Boy:RightHandIndex2
									{
										OFFSET -3.229187 -0.574905 -0.143498
										CHANNELS 3 Xrotation Yrotation Zrotation
										JOINT Boy:RightHandIndex3
										{
											OFFSET -3.111160 -1.135643 -0.280794
											CHANNELS 3 Xrotation Yrotation Zrotation
											JOINT Boy:RightHandIndex4
											{
												OFFSET -3.151428 -1.838524 -0.237864
												CHANNELS 3 Xrotation Yrotation Zrotation
												JOINT Boy:RightHandIndex4_end
												{
													OFFSET 0.000000 3.656265 0.000000
													CHANNELS 3 Xrotation Yrotation Zrotation
													End Site
													{
														OFFSET 0.000000 3.656265 0.000000
													}
												}
											}
										}
									}
								}
								JOINT Boy:RightHandMiddle1
								{
									OFFSET -12.135162 -0.030609 -0.098180
									CHANNELS 3 Xrotation Yrotation Zrotation
									JOINT Boy:RightHandMiddle2
									{
										OFFSET -3.290932 -0.875473 -0.186928
										CHANNELS 3 Xrotation Yrotation Zrotation
										JOINT Boy:RightHandMiddle3
										{
											OFFSET -3.094551 -1.150215 -0.267588
											CHANNELS 3 Xrotation Yrotation Zrotation
											JOINT Boy:RightHandMiddle4
											{
												OFFSET -4.410469 -2.017624 -0.248491
												CHANNELS 3 Xrotation Yrotation Zrotation
												JOINT Boy:RightHandMiddle4_end
												{
													OFFSET 0.000000 4.856407 0.000000
													CHANNELS 3 Xrotation Yrotation Zrotation
													End Site
													{
														OFFSET 0.000000 4.856415 0.000000
													}
												}
											}
										}
									}
								}
								JOINT Boy:RightHandRing1
								{
									OFFSET -12.304863 -0.401016 -3.070051
									CHANNELS 3 Xrotation Yrotation Zrotation
									JOINT Boy:RightHandRing2
									{
										OFFSET -2.881340 -0.992859 -0.186927
										CHANNELS 3 Xrotation Yrotation Zrotation
										JOINT Boy:RightHandRing3
										{
											OFFSET -3.022743 -1.281021 -0.290962
											CHANNELS 3 Xrotation Yrotation Zrotation
											JOINT Boy:RightHandRing4
											{
												OFFSET -3.700905 -1.727280 -0.322350
												CHANNELS 3 Xrotation Yrotation Zrotation
												JOINT Boy:RightHandRing4_end
												{
													OFFSET 0.000000 4.096848 0.000000
													CHANNELS 3 Xrotation Yrotation Zrotation
													End Site
													{
														OFFSET 0.000000 4.096848 0.000000
													}
												}
											}
										}
									}
								}
								JOINT Boy:RightHandPinky1
								{
									OFFSET -11.337273 -1.689568 -5.625613
									CHANNELS 3 Xrotation Yrotation Zrotation
									JOINT Boy:RightHandPinky2
									{
										OFFSET -2.679024 -0.950066 -0.330555
										CHANNELS 3 Xrotation Yrotation Zrotation
										JOINT Boy:RightHandPinky3
										{
											OFFSET -2.724571 -0.843628 -0.252684
											CHANNELS 3 Xrotation Yrotation Zrotation
											JOINT Boy:RightHandPinky4
											{
												OFFSET -2.778999 -0.971451 -0.188803
												CHANNELS 3 Xrotation Yrotation Zrotation
												JOINT Boy:RightHandPinky4_end
												{
													OFFSET 0.000000 2.949936 0.000000
													CHANNELS 3 Xrotation Yrotation Zrotation
													End Site
													{
														OFFSET 0.000000 2.949951 0.000000
													}
												}
											}
										}
									}
								}
							}
						}
					}
				}
				JOINT Boy:Neck
				{
					OFFSET 0.000000 21.684296 -3.123054
					CHANNELS 3 Xrotation Yrotation Zrotation
					JOINT Boy:Head
					{
						OFFSET 0.000000 8.913803 1.034021
						CHANNELS 3 Xrotation Yrotation Zrotation
						JOINT Boy:HeadTop_End
						{
							OFFSET 0.000000 62.353836 0.000000
							CHANNELS 3 Xrotation Yrotation Zrotation
							JOINT Boy:HeadTop_End_end
							{
								OFFSET 0.000000 62.353821 0.000000
								CHANNELS 3 Xrotation Yrotation Zrotation
								End Site
								{
									OFFSET 0.000000 62.353821 0.000000
								}
							}
						}
					}
				}
			}
		}
	}
	JOINT Boy:LeftUpLeg
	{
		OFFSET 8.266982 -4.795517 -0.379053
		CHANNELS 3 Xrotation Yrotation Zrotation
		JOINT Boy:LeftLeg
		{
			OFFSET 0.409030 -33.779736 0.111501
			CHANNELS 3 Xrotation Yrotation Zrotation
			JOINT Boy:LeftFoot
			{
				OFFSET 0.514059 -33.176792 -2.284590
				CHANNELS 3 Xrotation Yrotation Zrotation
				JOINT Boy:LeftToeBase
				{
					OFFSET 0.970168 -12.896767 14.273057
					CHANNELS 3 Xrotation Yrotation Zrotation
					JOINT Boy:LeftToeBase_end
					{
						OFFSET 0.000000 19.261049 0.000000
						CHANNELS 3 Xrotation Yrotation Zrotation
						End Site
						{
							OFFSET 0.000000 19.261049 0.000000
						}
					}
				}
			}
		}
	}
	JOINT Boy:RightUpLeg
	{
		OFFSET -8.266982 -4.795517 -0.379053
		CHANNELS 3 Xrotation Yrotation Zrotation
		JOINT Boy:RightLeg
		{
			OFFSET -0.409030 -33.779736 0.111501
			CHANNELS 3 Xrotation Yrotation Zrotation
			JOINT Boy:RightFoot
			{
				OFFSET -0.514059 -33.176792 -2.284590
				CHANNELS 3 Xrotation Yrotation Zrotation
				JOINT Boy:RightToeBase
				{
					OFFSET -0.970168 -12.896767 14.273057
					CHANNELS 3 Xrotation Yrotation Zrotation
					JOINT Boy:RightToeBase_end
					{
						OFFSET 0.000000 19.261049 0.000000
						CHANNELS 3 Xrotation Yrotation Zrotation
						End Site
						{
							OFFSET 0.000000 19.261049 0.000000
						}
					}
				}
			}
		}
	}
}
MOTION
Frames: 4
Frame Time: 0.033333
-0.034456 75.177582 1.423683 18.796141 -13.878894 -0.838337 5.895549 7.050826 1.846826 4.023123 2.640848 -0.073799 4.023215 2.634771 0.054220 0.305191 -13.066428 -12.919538 37.886284 -24.831475 -56.148267 -1.233119 -34.060678 -1.842959 -22.571653 0.682545 0.694593 -0.998519 4.280321 7.078718 5.262118 14.224852 8.877834 -8.577556 8.199149 12.083697 0.000002 -0.000002 -0.000003 -0.000002 -0.000001 0.000000 -7.919141 -3.056192 -74.327826 -6.021934 -2.367868 -49.749237 -3.848384 0.132221 -38.479749 0.000002 -0.000001 0.000001 -0.000000 -0.000001 -0.000001 -8.275297 -1.151367 -70.715319 -6.061694 -1.068061 -54.291210 -3.312761 0.730997 -44.443641 -0.000003 -0.000001 -0.000000 0.000003 -0.000001 -0.000000 -8.231525 -1.368141 -66.348048 -6.677305 -0.342988 -56.834137 -4.613495 0.757484 -45.489576 0.000001 -0.000001 0.000001 -0.000002 0.000001 -0.000000 -5.456049 9.986798 -83.593490 -6.171101 2.812978 -62.868913 -4.024820 0.679397 -46.615611 -0.000001 -0.000001 -0.000000 -0.000000 -0.000003 -0.000001 1.238918 23.426027 5.899716 -36.807671 10.763091 65.899134 -4.452686 68.603670 4.512566 -13.226094 18.244139 -8.161701 -1.959634 1.381102 -9.124736 5.685185 -16.169083 -9.252375 -8.475856 -5.876485 -11.495859 -0.000001 0.000002 -0.000001 -0.000001 0.000002 0.000000 -7.918136 4.263824 73.617029 -6.781314 3.282428 49.754568 -4.532854 0.578420 38.425302 0.000001 -0.000001 -0.000000 0.000001 0.000001 -0.000001 -9.327315 2.479476 70.020518 -6.896549 1.918607 54.279804 -4.001637 -0.025470 44.384902 0.000003 0.000000 0.000000 -0.000001 0.000001 -0.000000 -5.886917 2.201794 70.673996 -7.592150 1.136902 56.820989 -5.311907 -0.088831 45.441122 -0.000001 -0.000000 0.000000 -0.000001 -0.000000 0.000000 -4.970982 -7.360580 75.086947 -7.090622 -2.019491 62.800031 -4.674201 0.065094 46.562916 -0.000001 -0.000000 0.000003 -0.000000 0.000000 0.000001 -6.245256 0.291346 0.360716 -6.246480 0.307286 0.323550 0.000000 0.000000 -0.000000 0.000000 0.000000 0.000000 -74.220865 2.675950 17.434456 120.176933 7.613332 -0.727296 43.406952 2.896961 5.519070 -0.000000 -0.000001 0.000000 -0.000002 -0.000000 -0.000000 -15.360740 -7.163354 6.816032 39.345820 5.827470 1.155803 -33.599948 9.571730 -7.251259 0.000000 -0.000000 -0.000000 0.000000 -0.000000 -0.000000 
0.091029 75.152847 16.138155 19.167819 -11.533705 5.843211 5.698331 10.488010 -4.567106 3.892392 3.796853 -1.285175 3.925087 3.803738 -1.036421 1.398798 -14.276029 -3.756934 54.174462 -24.416610 -55.135708 -2.260078 -51.950463 -2.570717 -27.241489 7.724286 -2.646712 -0.998520 4.280320 7.078717 5.262119 14.224855 8.877835 -8.577556 8.199155 12.083697 0.000000 0.000000 -0.000005 0.000001 0.000001 -0.000002 -7.919139 -3.056192 -74.327819 -6.021927 -2.367866 -49.749233 -3.848383 0.132217 -38.479749 -0.000001 -0.000002 -0.000000 0.000001 -0.000001 0.000000 -8.275297 -1.151365 -70.715319 -6.061697 -1.068063 -54.291210 -3.312760 0.730997 -44.443638 0.000001 0.000004 0.000000 -0.000001 0.000002 0.000001 -8.231525 -1.368138 -66.348048 -6.677304 -0.342986 -56.834137 -4.613489 0.757485 -45.489579 0.000001 0.000002 0.000000 -0.000000 0.000000 -0.000000 -5.456046 9.986797 -83.593490 -6.171101 2.812975 -62.868913 -4.024820 0.679393 -46.615611 0.000002 -0.000001 0.000000 0.000002 -0.000000 -0.000001 3.476817 22.875977 -6.422484 -49.331270 11.294300 71.860215 -15.961577 83.738666 15.803512 -20.065093 34.409048 -12.192299 -1.959634 1.381105 -9.124736 5.685183 -16.169085 -9.252377 -8.475858 -5.876485 -11.495859 0.000004 0.000000 -0.000001 0.000002 0.000000 -0.000000 -7.918138 4.263825 73.617029 -6.781315 3.282426 49.754564 -4.532854 0.578421 38.425306 -0.000002 0.000001 0.000001 0.000000 -0.000001 0.000001 -9.327311 2.479475 70.020518 -6.896549 1.918602 54.279804 -4.001638 -0.025466 44.384909 -0.000000 -0.000001 0.000002 0.000001 -0.000001 0.000003 -5.886914 2.201796 70.673996 -7.592149 1.136901 56.820989 -5.311904 -0.088831 45.441126 -0.000003 -0.000002 0.000000 -0.000003 -0.000002 0.000000 -4.970982 -7.360577 75.086947 -7.090624 -2.019494 62.800031 -4.674204 0.065095 46.562912 -0.000003 0.000001 0.000001 -0.000003 -0.000001 0.000001 -3.939733 -0.886747 -1.685220 -3.933215 -0.963676 -1.689203 0.000002 -0.000000 0.000000 0.000002 0.000000 -0.000000 -84.724282 3.887577 8.425822 107.374542 9.932891 -0.452159 31.037582 2.832436 2.696877 0.000002 -0.000001 -0.000000 0.000002 0.000000 0.000000 2.760767 -12.973283 -3.954519 20.168883 1.802200 1.207021 -26.916157 15.314044 0.597125 0.000001 -0.000001 0.000000 0.000001 -0.000001 0.000000 
-0.416145 75.128113 29.604856 18.977556 -4.575827 13.755073 7.872738 12.045511 -13.626342 4.545401 4.298404 -2.267770 4.593630 4.379242 -1.915325 2.735640 -19.624078 3.428517 60.378087 -17.466247 -52.577078 -3.751724 -65.011448 -3.864167 -34.493258 3.418008 0.658965 -0.998519 4.280319 7.078718 5.262119 14.224855 8.877831 -8.577558 8.199153 12.083697 -0.000001 -0.000001 -0.000004 -0.000001 -0.000001 -0.000003 -7.919140 -3.056192 -74.327826 -6.021934 -2.367865 -49.749237 -3.848386 0.132218 -38.479752 0.000001 0.000000 0.000000 0.000001 -0.000005 -0.000000 -8.275297 -1.151369 -70.715319 -6.061696 -1.068063 -54.291203 -3.312761 0.730997 -44.443641 -0.000000 0.000000 -0.000001 -0.000000 -0.000002 -0.000001 -8.231525 -1.368144 -66.348048 -6.677306 -0.342988 -56.834137 -4.613491 0.757480 -45.489576 -0.000000 -0.000002 -0.000000 0.000000 -0.000004 0.000000 -5.456048 9.986798 -83.593490 -6.171094 2.812975 -62.868913 -4.024820 0.679394 -46.615611 0.000003 -0.000002 -0.000000 0.000001 -0.000002 -0.000002 0.789116 17.562071 -5.794171 -52.947179 16.700586 63.777096 7.038052 103.749283 -7.472641 -14.962622 44.067049 -18.708001 -1.959637 1.381102 -9.124736 5.685187 -16.169081 -9.252374 -8.475855 -5.876488 -11.495862 0.000000 0.000001 0.000001 0.000000 -0.000001 -0.000002 -7.918138 4.263825 73.617029 -6.781316 3.282434 49.754571 -4.532855 0.578419 38.425306 -0.000003 -0.000000 -0.000000 -0.000001 0.000000 0.000000 -9.327315 2.479478 70.020524 -6.896549 1.918604 54.279800 -4.001636 -0.025468 44.384905 0.000001 0.000000 -0.000001 -0.000001 -0.000001 0.000001 -5.886915 2.201795 70.673996 -7.592146 1.136902 56.820989 -5.311907 -0.088831 45.441122 -0.000003 0.000001 -0.000001 -0.000003 0.000001 -0.000001 -4.970981 -7.360579 75.086947 -7.090623 -2.019492 62.800038 -4.674203 0.065093 46.562912 -0.000001 0.000000 -0.000000 0.000003 0.000001 -0.000000 -0.974385 -2.475646 -2.402116 -0.953137 -2.585667 -2.334128 0.000002 -0.000001 0.000001 0.000002 0.000000 0.000000 -87.891817 7.718192 -6.229264 84.395873 10.484621 -0.060803 19.567341 6.615887 0.475623 -0.000003 -0.000001 0.000000 0.000000 0.000000 0.000001 4.443815 -17.171184 -13.672805 23.212538 -1.835415 0.547100 -3.905651 7.091278 2.588421 0.000001 0.000002 -0.000001 0.000001 0.000002 -0.000001 
-0.948762 76.613503 43.727852 19.665701 0.308995 12.253873 7.469894 11.941299 -13.777706 4.141083 4.169983 -2.351114 4.142858 4.284914 -2.096841 2.553786 -19.843890 2.507672 51.447573 -9.794449 -52.754913 -3.408002 -62.802633 -3.553157 -36.344932 -0.002783 5.974890 -0.998519 4.280318 7.078719 5.262120 14.224855 8.877830 -8.577556 8.199154 12.083697 0.000002 0.000000 -0.000002 0.000001 -0.000001 0.000004 -7.919139 -3.056193 -74.327826 -6.021930 -2.367865 -49.749237 -3.848384 0.132221 -38.479746 -0.000000 0.000001 0.000001 -0.000000 -0.000002 -0.000000 -8.275298 -1.151367 -70.715319 -6.061697 -1.068065 -54.291207 -3.312764 0.730998 -44.443641 -0.000000 0.000001 -0.000000 0.000000 0.000001 -0.000001 -8.231525 -1.368141 -66.348048 -6.677306 -0.342989 -56.834137 -4.613488 0.757482 -45.489576 -0.000000 -0.000001 0.000001 -0.000001 0.000001 0.000002 -5.456048 9.986800 -83.593490 -6.171096 2.812975 -62.868913 -4.024818 0.679394 -46.615614 0.000001 -0.000000 -0.000000 -0.000000 -0.000000 -0.000000 0.501020 14.847575 -5.231930 -44.995405 15.213596 59.067865 3.356418 117.061492 -3.984565 -2.487631 38.719239 -28.496550 -1.959637 1.381101 -9.124735 5.685184 -16.169081 -9.252376 -8.475852 -5.876486 -11.495863 -0.000002 -0.000002 -0.000001 0.000000 0.000001 0.000000 -7.918137 4.263824 73.617029 -6.781314 3.282430 49.754564 -4.532857 0.578421 38.425302 0.000001 0.000000 0.000001 0.000001 -0.000000 -0.000001 -9.327317 2.479477 70.020524 -6.896549 1.918605 54.279807 -4.001634 -0.025466 44.384902 -0.000001 -0.000000 -0.000001 -0.000003 -0.000000 0.000001 -5.886919 2.201794 70.673996 -7.592146 1.136901 56.820989 -5.311906 -0.088833 45.441129 0.000000 0.000001 -0.000001 0.000000 0.000001 -0.000001 -4.970981 -7.360580 75.086947 -7.090623 -2.019490 62.800038 -4.674205 0.065094 46.562916 -0.000003 0.000003 0.000002 0.000001 -0.000001 -0.000001 1.490392 -3.297052 -1.186104 1.505283 -3.346505 -1.097574 -0.000001 0.000001 -0.000001 -0.000003 0.000001 -0.000001 -79.992095 6.381131 -11.554630 54.801896 10.481439 -0.162946 12.191520 1.252889 -0.376859 -0.000001 -0.000001 -0.000000 -0.000001 0.000000 0.000000 18.112753 -13.747542 -4.779055 4.198712 -6.235480 -0.467171 39.852863 0.560443 -1.607387 0.000001 0.000000 -0.000000 0.000001 0.000000 -0.000000 
